<?xml version="1.0" standalone="no"?>
<!DOCTYPE svg PUBLIC "-//W3C//DTD SVG 20010904//EN"
 "http://www.w3.org/TR/2001/REC-SVG-20010904/DTD/svg10.dtd">
<svg version="1.0" xmlns="http://www.w3.org/2000/svg"
 width="512.000000pt" height="512.000000pt" viewBox="0 0 512.000000 512.000000"
 preserveAspectRatio="xMidYMid meet">
<metadata>
Created by potrace 1.14, written by Peter Selinger 2001-2017
</metadata>
<g transform="translate(0.000000,512.000000) scale(0.100000,-0.100000)"
fill="#000000" stroke="none">
<path d="M2368 5116 c-1 -2 -34 -6 -73 -10 -38 -3 -80 -8 -92 -10 -11 -3 -43
-8 -70 -12 -140 -20 -314 -68 -498 -137 -60 -23 -111 -45 -113 -49 -2 -4 -10
-8 -18 -8 -26 0 -229 -112 -366 -203 l-138 -90 -87 -4 c-49 -2 -123 -5 -165
-6 -42 -1 -79 -5 -82 -7 -4 -5 -14 -75 -21 -155 -3 -28 -7 -74 -9 -103 -5 -55
-14 -94 -25 -102 -5 -4 -96 -118 -138 -175 -99 -130 -237 -391 -309 -584 -35
-92 -97 -300 -108 -358 -2 -15 -9 -53 -15 -83 -30 -164 -36 -239 -35 -465 0
-212 7 -313 30 -429 2 -11 7 -37 10 -56 23 -129 91 -351 156 -508 79 -191 230
-443 373 -619 86 -108 260 -281 360 -361 44 -35 89 -71 100 -80 30 -25 181
-123 254 -166 61 -35 266 -136 278 -136 3 0 19 -7 36 -14 95 -44 344 -117 472
-140 17 -3 53 -10 80 -15 28 -5 57 -9 65 -9 8 0 44 -4 80 -9 84 -10 444 -10
535 0 74 9 124 16 159 23 11 2 35 7 51 10 252 45 556 158 788 294 112 65 108
63 156 95 24 17 51 35 60 40 9 6 18 12 21 15 3 3 49 40 103 84 357 284 633
673 795 1121 72 198 108 355 141 610 9 73 7 502 -3 544 -3 14 -8 45 -11 70 -5
47 -7 56 -26 151 -28 140 -95 358 -148 483 -12 27 -18 54 -14 59 3 7 1 8 -5 4
-11 -7 -16 8 -15 42 1 7 -1 11 -5 8 -7 -8 -32 42 -32 65 0 10 -4 21 -10 24 -5
3 -10 15 -10 26 0 13 4 18 12 13 7 -4 8 -3 4 5 -6 9 -11 9 -21 1 -10 -8 -12
-5 -12 15 0 14 4 22 10 18 6 -3 7 -1 3 6 -4 6 -11 9 -16 6 -4 -3 -15 7 -25 21
-9 14 -19 23 -22 20 -4 -3 -36 38 -71 92 -59 88 -85 123 -185 247 -46 57 -224
233 -282 280 -28 22 -52 42 -55 45 -51 51 -285 206 -410 271 -175 92 -389 177
-540 214 -60 15 -204 46 -232 50 -21 3 -53 7 -70 10 -18 3 -51 8 -73 11 -42 6
-471 15 -477 10z"/>
<path d="M4795 3899 c-11 -16 -1 -19 13 -3 7 8 8 14 3 14 -5 0 -13 -5 -16 -11z"/>
</g>
</svg>
