<?xml version="1.0" encoding="UTF-8" standalone="no"?>
<svg
   xmlns:dc="http://purl.org/dc/elements/1.1/"
   xmlns:cc="http://creativecommons.org/ns#"
   xmlns:rdf="http://www.w3.org/1999/02/22-rdf-syntax-ns#"
   xmlns:svg="http://www.w3.org/2000/svg"
   xmlns="http://www.w3.org/2000/svg"
   xmlns:sodipodi="http://sodipodi.sourceforge.net/DTD/sodipodi-0.dtd"
   xmlns:inkscape="http://www.inkscape.org/namespaces/inkscape"
   inkscape:version="1.0 (4035a4fb49, 2020-05-01)"
   sodipodi:docname="social-1_round-youtube.svg"
   xml:space="preserve"
   enable-background="new 0 0 32 32"
   viewBox="0 0 200 200"
   height="200"
   width="200"
   y="0px"
   x="0px"
   id="Layer_1"
   version="1.1"><metadata
   id="metadata11"><rdf:RDF><cc:Work
       rdf:about=""><dc:format>image/svg+xml</dc:format><dc:type
         rdf:resource="http://purl.org/dc/dcmitype/StillImage" /><dc:title></dc:title></cc:Work></rdf:RDF></metadata><defs
   id="defs9" /><sodipodi:namedview
   inkscape:current-layer="Layer_1"
   inkscape:window-maximized="1"
   inkscape:window-y="-8"
   inkscape:window-x="-8"
   inkscape:cy="148.36652"
   inkscape:cx="190.92335"
   inkscape:zoom="6.640625"
   scale-x="1"
   showgrid="false"
   id="namedview7"
   inkscape:window-height="1017"
   inkscape:window-width="1920"
   inkscape:pageshadow="2"
   inkscape:pageopacity="0"
   guidetolerance="10"
   gridtolerance="10"
   objecttolerance="10"
   borderopacity="1"
   bordercolor="#666666"
   pagecolor="#ffffff" />
<path
   style="stroke-width:1"
   id="path2"
   d="M 99.877647,0 C 44.944942,0 0,44.944942 0,99.877647 c 0,54.932703 44.944942,99.877643 99.877647,99.877643 54.932703,0 99.877643,-44.94494 99.877643,-99.877643 C 199.75529,44.944942 154.81035,0 99.877647,0 Z m 49.938823,103.62306 c 0,8.11505 -1.24847,16.23012 -1.24847,16.23012 0,0 -1.24847,6.86658 -3.74542,9.98776 -3.7454,3.74541 -8.11505,3.74541 -9.98776,4.36964 -13.73317,1.24848 -34.957173,1.24848 -34.957173,1.24848 0,0 -26.217883,0 -33.708706,-1.24848 -2.496941,-0.62423 -7.490823,0 -11.236235,-4.36964 -3.121177,-3.12118 -3.745412,-9.98776 -3.745412,-9.98776 0,0 -1.24847,-8.11507 -1.24847,-16.23012 v -7.490825 c 0,-8.115058 1.24847,-16.230118 1.24847,-16.230118 0,0 1.24847,-6.866588 3.745412,-9.987764 3.745412,-3.745412 8.115058,-3.745412 9.987765,-4.369647 13.733176,-1.248471 34.957176,-1.248471 34.957176,-1.248471 v 0 c 0,0 21.224003,0 34.957173,1.248471 1.87271,0 6.24236,0 9.98776,4.369647 3.12118,3.121176 3.74542,9.987764 3.74542,9.987764 0,0 1.24847,8.11506 1.24847,16.230118 z"
   fill="#ff0000" />
<polygon
   style="stroke-width:0.160196"
   transform="scale(6.2423529)"
   id="polygon4"
   points="14.3,13.6 14.3,18.1 18.7,15.8 "
   fill="#ff0000" />
</svg>
